<svg width="110" height="110" viewBox="0 0 110 110" fill="none" xmlns="http://www.w3.org/2000/svg">
<g filter="url(#filter0_d)">
<circle cx="55" cy="47" r="35" fill="#74D95E"/>
</g>
<path d="M54.5 20C39.25 20 27 32.25 27 47.5C27 62.75 39.25 75 54.5 75C69.75 75 82 62.75 82 47.5C82 32.25 69.75 20 54.5 20ZM54.5 25C61.5 25 68 28.25 72 33.5C60.5 31.25 48.5 31.25 37 33.5C41.25 28.25 47.5 25 54.5 25ZM32 48C38.75 52.25 43.25 59.5 44.25 67.5C37 63.75 32.25 56.5 32 48ZM54.5 55C50.25 55 47 51.75 47 47.5C47 43.25 50.25 40 54.5 40C58.75 40 62 43.25 62 47.5C62 51.75 58.75 55 54.5 55ZM64.75 67.5C65.75 59.5 70.25 52.25 77 48C76.75 56.5 72 63.75 64.75 67.5Z" fill="#21233E"/>
<defs>
<filter id="filter0_d" x="0" y="0" width="110" height="110" filterUnits="userSpaceOnUse" color-interpolation-filters="sRGB">
<feFlood flood-opacity="0" result="BackgroundImageFix"/>
<feColorMatrix in="SourceAlpha" type="matrix" values="0 0 0 0 0 0 0 0 0 0 0 0 0 0 0 0 0 0 127 0" result="hardAlpha"/>
<feOffset dy="8"/>
<feGaussianBlur stdDeviation="10"/>
<feColorMatrix type="matrix" values="0 0 0 0 0.454902 0 0 0 0 0.85098 0 0 0 0 0.368627 0 0 0 1 0"/>
<feBlend mode="normal" in2="BackgroundImageFix" result="effect1_dropShadow"/>
<feBlend mode="normal" in="SourceGraphic" in2="effect1_dropShadow" result="shape"/>
</filter>
</defs>
</svg>
